<?xml version="1.0" encoding="utf-8"?>
<!-- Generator: Adobe Illustrator 23.1.0, SVG Export Plug-In . SVG Version: 6.00 Build 0)  -->
<svg version="1.1" id="Слой_1" xmlns="http://www.w3.org/2000/svg" xmlns:xlink="http://www.w3.org/1999/xlink" x="0px" y="0px"
	 viewBox="0 0 595.3 181.4" style="enable-background:new 0 0 595.3 181.4;" xml:space="preserve">
<style type="text/css">
	.st0{fill:#8B00FF;}
	.st1{fill:#0054EA;}
</style>
<g>
	<g>
		<g>
			<g>
				<path class="st0" d="M531.3,76.6v8.2h-27.2c-0.6,0-1.2,0-1.8-0.1c-6.6-0.5-12.6-3.4-16.9-8c-4.4-4.6-7.2-10.9-7.2-17.8
					c0-14.3,11.6-25.9,25.9-25.9h16.2l-6.2,8.1l0,0.1h-10c-9.8,0-17.7,8-17.7,17.7c0,9.8,7.9,17.7,17.7,17.7v0H531.3z"/>
				<path class="st0" d="M531.3,76.6v8.2h-27.2c-0.6,0-1.2,0-1.8-0.1c-6.6-0.5-12.6-3.4-16.9-8c-4.4-4.6-7.2-10.9-7.2-17.8
					c0-14.3,11.6-25.9,25.9-25.9h16.2l-6.2,8.1l0,0.1h-10c-9.8,0-17.7,8-17.7,17.7c0,9.8,7.9,17.7,17.7,17.7v0H531.3z"/>
			</g>
			<g>
				<path class="st0" d="M531.3,76.6v8.2h-27.2c-0.6,0-1.2,0-1.8-0.1c-6.6-0.5-12.6-3.4-16.9-8c-4.4-4.6-7.2-10.9-7.2-17.8
					c0-14.3,11.6-25.9,25.9-25.9h16.2l-6.2,8.1l0,0.1h-10c-9.8,0-17.7,8-17.7,17.7c0,9.8,7.9,17.7,17.7,17.7v0H531.3z"/>
				<path class="st0" d="M531.3,76.6v8.2h-27.2c-0.6,0-1.2,0-1.8-0.1c-6.6-0.5-12.6-3.4-16.9-8c-4.4-4.6-7.2-10.9-7.2-17.8
					c0-14.3,11.6-25.9,25.9-25.9h16.2l-6.2,8.1l0,0.1h-10c-9.8,0-17.7,8-17.7,17.7c0,9.8,7.9,17.7,17.7,17.7v0H531.3z"/>
			</g>
		</g>
	</g>
	<path class="st0" d="M297.7,41.7c-1.8-2.8-4.3-4.9-7.6-6.4c-3.3-1.5-7.2-2.2-11.7-2.2h-21.3v51.8h9.6V41.2h11.2
		c4.2,0,7.4,0.9,9.5,2.7c2.2,1.8,3.2,4.3,3.2,7.6c0,3.3-1.1,5.8-3.2,7.6c-2.2,1.8-5.4,2.7-9.5,2.7h-8.7v8.1h9.2
		c4.5,0,8.4-0.7,11.7-2.2c3.3-1.5,5.9-3.6,7.6-6.4c1.8-2.8,2.7-6.1,2.7-9.8C300.4,47.7,299.5,44.4,297.7,41.7z"/>
	<g>
		<polygon class="st0" points="314.8,41.1 336.9,41.1 343,33.1 305.2,33.1 305.2,84.8 343,84.8 343,76.8 314.8,76.8 		"/>
		<rect x="317.3" y="54.6" class="st0" width="22.5" height="7.9"/>
	</g>
	<path class="st0" d="M484.8,83.2c-0.6-0.4-1.1-0.9-1.6-1.4c-0.5-0.5-1.1-1-1.5-1.5c-0.7-0.7-1.4-1.5-1.9-2.2
		c-0.3-0.4-0.6-0.8-1-1.3H449V62.5h24.2c-0.2-1.2-0.3-2.4-0.3-3.5c0-1.5,0.1-2.9,0.4-4.4H449V41.1h29.7c2.2-3.2,5-5.9,8.3-8.1h-47.5
		v51.8H487c-0.3-0.2-0.7-0.5-1-0.7C485.6,83.8,485.2,83.5,484.8,83.2z"/>
	<path class="st0" d="M380.1,67.8c3.6-1.4,6.3-3.5,8.2-6.3c1.9-2.8,2.8-6.2,2.8-10.1c0-3.8-0.9-7.1-2.7-9.8
		c-1.8-2.8-4.3-4.9-7.6-6.4c-3.3-1.5-7.2-2.2-11.7-2.2H348l-0.1,0.1l-6.1,8.1l0,0.1l26.9-0.1c4.2,0,7.4,0.9,9.5,2.7
		c2.2,1.8,3.3,4.3,3.3,7.6c0,3.3-1.1,5.8-3.3,7.6c-2.2,1.8-5.3,2.7-9.5,2.7h-11.3V43.7h-9.6v41.1h9.6V69.7h11.7c0.9,0,1.5,0,2-0.1
		l10.6,15.2H392L380.1,67.8z"/>
	<path class="st0" d="M406.4,41.1v15.7h25V65h-25v19.8h-9.6V33.1h37.8v8.1H406.4z"/>
	<polygon class="st0" points="556.7,33.1 525.1,33.1 518.9,41.2 536.1,41.2 536.1,84.8 545.7,84.8 545.7,41.2 562.9,41.2 
		562.9,33.1 	"/>
</g>
<g>
	<g>
		<path class="st1" d="M274.2,109.9h-17.1v-8.1H301v8.1h-17.1v43.6h-9.6V109.9z"/>
		<path class="st1" d="M456.7,153.5l-0.1-34.3l-17,28.4h-4.3l-17-27.9v33.9h-9.2v-51.7h7.9l20.5,34.3l20.2-34.3h7.9l0.1,51.7H456.7z
			"/>
		<g>
			<polygon class="st1" points="315.2,109.8 315.2,145.5 343.4,145.5 343.4,153.5 305.6,153.5 305.6,101.8 343.4,101.8 343.4,109.8 
							"/>
			<rect x="317.7" y="123.3" class="st1" width="22.5" height="7.9"/>
		</g>
		<path class="st1" d="M381,101.8h-9.5l-23.3,51.8h9.9l5.1-12l3.3-7.5l9.7-22.6l9.8,22.6c0,0.4,2.1,5.1,2.9,6.9l0.1,0.1
			c0.2,0.3,0.2,0.5,0.2,0.5l5.2,12h10.1L381,101.8z"/>
	</g>
</g>
<g>
	<path class="st0" d="M126.3,112.7l0.1-0.3V56.7h28.4l11.8-23.4c-2.1-0.1-4.2-0.1-6.3-0.1h-57.5v122.6h1.6l8-15.7l12-23.6
		L126.3,112.7z"/>
	<g>
		<path class="st0" d="M216.5,58c-5.1-8-12.5-14.2-22.2-18.5c-5.9-2.6-12.4-4.5-19.5-5.5l-11.5,22.8c10,0.5,17.9,3.1,23.4,7.6
			c6.3,5.1,9.4,12.5,9.4,22.1s-3.1,17-9.4,22.1c-6.3,5.1-15.6,7.7-27.7,7.7H133L121,140h39.3c13,0,24.3-2.2,34-6.5
			c9.7-4.3,17-10.5,22.2-18.5c5.1-8.1,7.7-17.6,7.7-28.4C224.3,75.5,221.7,66,216.5,58z"/>
		<path class="st1" d="M32.3,33.2l11.8,23.4h28.4v55.8l0.1,0.3l1.9,3.6l12,23.6l8,15.7h1.6V33.1H38.7C36.5,33.1,34.4,33.1,32.3,33.2
			z"/>
	</g>
</g>
<g>
	<line class="st0" x1="240.1" y1="32.4" x2="240.1" y2="155.7"/>
	<rect x="238.8" y="32.4" class="st0" width="2.6" height="123.3"/>
</g>
</svg>
