<?xml version="1.0" encoding="utf-8"?>
<!-- Generator: Adobe Illustrator 23.1.0, SVG Export Plug-In . SVG Version: 6.00 Build 0)  -->
<svg version="1.1" id="Слой_1" xmlns="http://www.w3.org/2000/svg" xmlns:xlink="http://www.w3.org/1999/xlink" x="0px" y="0px"
	 viewBox="0 0 254.6 181.4" style="enable-background:new 0 0 254.6 181.4;" xml:space="preserve">
<style type="text/css">
	.st0{fill:#8B00FF;}
	.st1{fill:#0054EA;}
</style>
<g>
	<path class="st0" d="M122.4,112.7l0.1-0.3V56.7H151l11.8-23.4c-2.1-0.1-4.2-0.1-6.3-0.1H99v122.6h1.6l8-15.7l12-23.6L122.4,112.7z"
		/>
	<g>
		<path class="st0" d="M212.7,58c-5.1-8-12.5-14.2-22.2-18.5c-5.9-2.6-12.4-4.5-19.5-5.5l-11.5,22.8c10,0.5,17.9,3.1,23.4,7.6
			c6.3,5.1,9.4,12.5,9.4,22.1s-3.1,17-9.4,22.1c-6.3,5.1-15.6,7.7-27.7,7.7h-26.1l-12,23.6h39.3c13,0,24.3-2.2,34-6.5
			c9.7-4.3,17-10.5,22.2-18.5c5.1-8.1,7.7-17.6,7.7-28.4C220.4,75.5,217.8,66,212.7,58z"/>
		<path class="st1" d="M28.5,33.2l11.8,23.4h28.4v55.8l0.1,0.3l1.9,3.6l12,23.6l8,15.7h1.6V33.1H34.8C32.6,33.1,30.6,33.1,28.5,33.2
			z"/>
	</g>
</g>
</svg>
